<?xml version="1.0" encoding="utf-8"?>
<!-- Generator: Adobe Illustrator 15.0.0, SVG Export Plug-In . SVG Version: 6.00 Build 0)  -->
<svg version="1.2" baseProfile="tiny" id="Layer_1" xmlns="http://www.w3.org/2000/svg" xmlns:xlink="http://www.w3.org/1999/xlink"
	 x="0px" y="0px" width="31px" height="31px" viewBox="0 0 31 31" xml:space="preserve">
<path fill="#FFFFFF" stroke="#010101" stroke-width="0.24" stroke-linecap="round" stroke-linejoin="round" stroke-miterlimit="3" d="
	M0.524,15.496c0-8.295,6.702-15.02,14.968-15.02c8.267,0,14.969,6.725,14.969,15.02c0,8.294-6.702,15.02-14.969,15.02
	C7.226,30.516,0.524,23.791,0.524,15.496z"/>
<polygon fill="#686A6C" stroke="#010101" stroke-width="0.24" stroke-linecap="round" stroke-linejoin="round" stroke-miterlimit="3" points="
	3.027,7.062 30.092,19.438 27.956,23.928 0.893,11.551 "/>
<path fill="#6A6B6E" stroke="#010101" stroke-width="0.24" stroke-linecap="round" stroke-linejoin="round" stroke-miterlimit="3" d="
	M3.463,9.995c3.075-6.643,10.979-9.62,17.654-6.65c6.676,2.97,9.594,10.762,6.518,17.404c-0.037,0.083-0.077,0.165-0.117,0.247
	c-3.075,6.642-10.979,9.62-17.654,6.651c-6.675-2.971-9.594-10.762-6.519-17.404C3.385,10.159,3.423,10.077,3.463,9.995z"/>
<path fill="#BCBEC0" stroke="#010101" stroke-width="0.24" stroke-linecap="round" stroke-linejoin="round" stroke-miterlimit="3" d="
	M4.591,10.512C7.439,4.52,14.629,1.894,20.65,4.647c6.02,2.753,8.591,9.842,5.743,15.834l0,0c-2.85,5.992-10.04,8.617-16.06,5.864
	S1.742,16.503,4.591,10.512z"/>
<path fill="#FFFFFF" stroke="#010101" stroke-width="0.24" stroke-linecap="round" stroke-linejoin="round" stroke-miterlimit="3" d="
	M9.196,12.615c1.646-3.461,5.798-4.978,9.276-3.387c3.478,1.59,4.962,5.686,3.317,9.146c-1.646,3.461-5.799,4.978-9.277,3.387
	C9.035,20.172,7.55,16.076,9.196,12.615z"/>
<path fill="#BCBEC0" stroke="#010101" stroke-width="0.24" stroke-linecap="round" stroke-linejoin="round" stroke-miterlimit="3" d="
	M12.109,13.947c0.884-1.86,3.116-2.674,4.985-1.82c1.869,0.854,2.667,3.055,1.782,4.915c-0.884,1.86-3.116,2.675-4.984,1.82
	C12.023,18.006,11.226,15.806,12.109,13.947z"/>
<path fill="#6D6E71" stroke="#010101" stroke-width="0.24" stroke-linecap="round" stroke-linejoin="round" stroke-miterlimit="3" d="
	M13.181,14.484c0.599-1.261,2.112-1.813,3.379-1.234c1.267,0.58,1.808,2.071,1.208,3.333c-0.599,1.26-2.113,1.813-3.38,1.234
	C13.122,17.237,12.582,15.745,13.181,14.484z"/>
</svg>
